<svg xmlns="http://www.w3.org/2000/svg" viewBox="0 0 100 100" width="100" height="100">
    <!-- Cloud background - scaled up and centered -->
    <path
        d="M5 25c-12 0-22 10-22 22s10 22 22 22h70c12 0 22-10 22-22s-10-22-22-22c0-18-15-32-32-32-12 0-22 6-28 15-3-2-6-2-9-2-6 0-12 4-12 12 0 3 1 6 3 7z"
        fill="#4A90E2" stroke="#2E5C8A" stroke-width="2" />

    <!-- Contact/Person icon - scaled and repositioned -->
    <g transform="translate(15, 20)">
        <circle cx="18" cy="12" r="8" fill="white" stroke="#2E5C8A" stroke-width="2" />
        <path d="M5 40c0-9 6-15 13-15s13 6 13 15" fill="white" stroke="#2E5C8A" stroke-width="2" />
    </g>

    <!-- Calendar icon - scaled and repositioned -->
    <g transform="translate(55, 25)">
        <rect x="0" y="8" width="35" height="30" rx="4" fill="white" stroke="#2E5C8A" stroke-width="2" />
        <rect x="0" y="8" width="35" height="9" rx="4" fill="#2E5C8A" />
        <circle cx="9" cy="5" r="2" fill="none" stroke="#2E5C8A" stroke-width="2" />
        <circle cx="26" cy="5" r="2" fill="none" stroke="#2E5C8A" stroke-width="2" />
        <line x1="6" y1="21" x2="29" y2="21" stroke="#2E5C8A" stroke-width="1.5" />
        <line x1="6" y1="27" x2="29" y2="27" stroke="#2E5C8A" stroke-width="1.5" />
        <line x1="12" y1="17" x2="12" y2="35" stroke="#2E5C8A" stroke-width="1.5" />
        <line x1="23" y1="17" x2="23" y2="35" stroke="#2E5C8A" stroke-width="1.5" />
    </g>
</svg>